<svg xmlns="http://www.w3.org/2000/svg" viewBox="0 0 1024 1024" role="img" aria-labelledby="title"><title id="title">EVA-3dScan — app icon</title><defs><linearGradient id="bg" x2="1" y2="1"><stop stop-color="#233fea"/><stop offset="1" stop-color="#111e64"/></linearGradient><linearGradient id="e" x2="0" y2="1"><stop stop-color="#b6fff5"/><stop offset="1" stop-color="#42e6d1"/></linearGradient></defs><rect width="1024" height="1024" fill="url(#bg)"/><path d="M178 338V178h160M686 178h160v160M846 686v160H686M338 846H178V686" fill="none" stroke="#91f5ed" stroke-width="22" stroke-linecap="round"/><path d="m310 328 352-53 76 53-352 54Zm0 169 257-39 76 53-257 39Zm0 169 352-53 76 53-352 54Z" fill="url(#e)"/><path d="M310 328v338l76 54V382Z" fill="#fff"/><path d="m662 275 76 53v62l-76-52Zm-95 183 76 53v62l-76-52Zm95 155 76 53v62l-76-52Z" fill="#20acae"/><circle cx="803" cy="217" r="34" fill="#ff825d"/><path d="M223 791h124M223 753h61" stroke="#c1d4ff" stroke-width="10" stroke-linecap="round" opacity=".5"/></svg>
